<svg width="34" height="34" viewBox="0 0 34 34" fill="none" xmlns="http://www.w3.org/2000/svg">
<path d="M26.9167 9.10111C26.9167 7.98678 26.0132 7.08333 24.8989 7.08333H9.10111C7.98678 7.08333 7.08333 7.98678 7.08333 9.10111V24.8989C7.08333 26.0132 7.98678 26.9167 9.10111 26.9167H24.8989C26.0132 26.9167 26.9167 26.0132 26.9167 24.8989V9.10111ZM29.75 24.8989C29.75 27.578 27.578 29.75 24.8989 29.75H9.10111C6.42198 29.75 4.25 27.578 4.25 24.8989V9.10111C4.25 6.42198 6.42198 4.25 9.10111 4.25H24.8989C27.578 4.25 29.75 6.42198 29.75 9.10111V24.8989Z" fill="#F9F9FB"/>
<path d="M24.0833 9.91667V12.75H12.75V21.25H24.0833V24.0833H12.0417C10.8681 24.0833 9.91667 23.1319 9.91667 21.9583V12.0417C9.91667 10.8681 10.8681 9.91667 12.0417 9.91667H24.0833Z" fill="#F9F9FB"/>
<path d="M15.5833 15.5833H24.0833V18.4167H15.5833V15.5833Z" fill="#F9F9FB"/>
</svg>
