<svg width="34" height="34" viewBox="0 0 34 34" fill="none" xmlns="http://www.w3.org/2000/svg">
<path d="M16.4264 30.4156C16.2537 30.5903 16.0808 30.7652 15.908 30.9398C15.7734 31.0759 15.5883 31.2232 15.4148 31.146C15.2494 31.0722 15.2206 30.8488 15.2161 30.6642C15.1776 29.1292 15.1392 27.5943 15.1007 26.0593C15.0853 25.4409 15.0722 24.806 15.2761 24.2237C15.4677 23.6761 15.8378 23.2211 16.2492 22.8297C16.535 22.5579 16.8311 22.3095 17.1064 22.0253L18.0098 21.0931C18.6185 20.465 19.2272 19.837 19.8359 19.2089C20.1111 18.9249 20.3958 18.6253 20.511 18.243C20.6702 17.7147 20.4541 17.1124 20.048 16.7481C19.5251 16.2792 18.8915 16.2808 18.2383 16.2806C17.757 16.2806 17.2756 16.2806 16.7943 16.2806C16.5552 16.2806 16.3158 16.2777 16.0768 16.2805C15.9163 16.2824 15.7401 16.3225 15.6289 16.1697C15.5463 16.0562 15.5416 15.8978 15.5859 15.7636C15.7138 15.3769 16.1159 15.0874 16.3911 14.8131C16.717 14.4884 17.0428 14.1638 17.3686 13.8391C18.0202 13.1898 18.6718 12.5407 19.3235 11.8914C19.7828 11.4338 20.2395 10.9734 20.6966 10.5147C21.0807 10.1293 21.4647 9.74413 21.8488 9.35877C22.1992 9.00721 22.5682 8.64408 23.0365 8.49442C23.6721 8.29135 24.4015 8.5446 24.8484 9.04978C25.2266 9.47713 25.4145 10.0522 25.4746 10.6255C25.5231 11.0862 25.4949 11.5505 25.4528 12.0105C25.4168 12.402 25.4665 12.8093 25.4665 13.2067C25.4665 14.1385 25.4665 15.0701 25.4665 16.0019C25.4665 16.4661 25.4665 16.9305 25.4665 17.3947C25.4665 17.8057 25.4929 18.2149 25.4849 18.6261C25.4691 19.4437 25.301 20.2579 24.9926 21.0121C24.8909 21.2609 24.7737 21.5032 24.642 21.7368C24.0655 22.7579 23.2298 23.5949 22.4047 24.4178C21.9031 24.918 21.4017 25.4184 20.9001 25.9186C20.6526 26.1656 20.4051 26.4124 20.1576 26.6593C20.0338 26.7828 19.9101 26.9063 19.7863 27.0296C19.7212 27.0946 19.656 27.1594 19.591 27.2245C19.5701 27.2454 19.4937 27.3617 19.4697 27.3695C19.4446 27.3777 19.4282 27.3913 19.4201 27.4175C19.4149 27.434 19.4003 27.4423 19.3845 27.4475C19.3673 27.453 19.3599 27.4671 19.3548 27.4832C19.3535 27.4871 19.3532 27.4925 19.3505 27.4944C19.3316 27.5086 19.3093 27.5193 19.294 27.5366C19.2813 27.5509 19.2786 27.5744 19.2573 27.5822C19.2374 27.5895 19.2229 27.6017 19.2164 27.6232C19.2114 27.6401 19.199 27.6501 19.1827 27.6548C19.1613 27.6609 19.1503 27.6764 19.1436 27.697C19.1377 27.7147 19.1217 27.7184 19.1067 27.7244C19.0964 27.7285 19.0823 27.7364 19.08 27.7453C19.072 27.7766 19.0544 27.7918 19.0239 27.8C18.9972 27.8072 19.0087 27.8455 18.9878 27.8593C18.9715 27.8701 18.9529 27.877 18.9358 27.8865C18.9333 27.8878 18.9332 27.894 18.9326 27.8981C18.9299 27.9207 18.9185 27.9342 18.8961 27.9402C18.8852 27.9431 18.8685 27.9516 18.8675 27.9594C18.8623 28.0003 18.8315 28.0087 18.8022 28.0221C18.7774 28.0335 18.7557 28.0477 18.738 28.0735C18.7131 28.1095 18.678 28.1384 18.6451 28.168C18.613 28.1968 18.5917 28.2397 18.5459 28.2515C18.5388 28.2887 18.5086 28.3005 18.4812 28.3181C18.4665 28.3276 18.4623 28.3531 18.4491 28.367C18.4358 28.3809 18.4112 28.38 18.4003 28.3994C18.3983 28.403 18.3972 28.4071 18.3963 28.411C18.3913 28.4335 18.3766 28.4451 18.3556 28.4508C18.3385 28.4553 18.33 28.4685 18.3253 28.4852C18.323 28.4929 18.3209 28.5027 18.3153 28.5068C18.2994 28.5182 18.2791 28.5242 18.2659 28.5377C18.2524 28.5513 18.2451 28.5715 18.2351 28.5888C18.2048 28.5956 18.1894 28.6176 18.1787 28.6454C18.176 28.6524 18.169 28.6616 18.1627 28.6626C18.1257 28.6691 18.12 28.7105 18.0932 28.7261C18.0678 28.7411 18.0524 28.7623 18.0354 28.7849C18.0215 28.8034 17.9929 28.811 17.9811 28.83C17.9676 28.8518 17.9538 28.8686 17.9322 28.8814C17.9229 28.8868 17.9147 28.8983 17.9112 28.909C17.9039 28.9311 17.8879 28.9412 17.8687 28.9485C17.8523 28.9548 17.844 28.9677 17.8389 28.9841C17.8366 28.9915 17.833 29.001 17.8272 29.0044C17.7997 29.0205 17.7688 29.0312 17.7628 29.0707C17.7617 29.0783 17.7448 29.0869 17.734 29.089C17.7098 29.0938 17.6312 29.1972 17.6095 29.2189C17.5248 29.3027 17.4419 29.3884 17.3581 29.4732C17.1971 29.6361 17.0359 29.799 16.8749 29.962C16.7255 30.1131 16.5758 30.2645 16.4264 30.4156Z" fill="#F9F9FB"/>
<path d="M10.2455 10.9295C10.7228 10.3444 11.2509 9.79842 11.7757 9.25666C13.7619 7.20609 15.7482 5.15566 17.7344 3.10509C17.8617 2.97356 18.0097 2.83297 18.1905 2.83399C18.6354 2.83648 18.4653 3.696 18.4654 3.9472C18.4654 3.99695 18.4673 4.04654 18.485 4.09248C18.5019 4.13593 18.5039 4.18012 18.5039 4.22518C18.5039 4.36885 18.5036 4.51237 18.5039 4.65604C18.5039 4.71339 18.5033 4.77074 18.5139 4.8278C18.519 4.85574 18.5185 4.885 18.5186 4.91353C18.52 5.29919 18.5209 5.68498 18.5222 6.07064C18.5247 6.80098 18.5283 7.53132 18.5297 8.26181C18.5302 8.46824 18.5292 8.67467 18.528 8.88111C18.5269 9.07788 18.5445 9.28432 18.5116 9.47861C18.4969 9.56551 18.4743 9.65095 18.4517 9.73595C18.4337 9.80384 18.4157 9.87157 18.3977 9.93946C18.3864 9.98189 18.3751 10.0246 18.3558 10.0638C18.3417 10.0928 18.3234 10.1196 18.3048 10.1459C18.0765 10.4707 17.7879 10.7443 17.5149 11.029C17.0857 11.4527 16.6773 11.9017 16.2633 12.3409C15.8494 12.7801 15.4198 13.2355 14.9979 13.6829C14.7214 13.9761 14.4488 14.2732 14.1707 14.5648C14.094 14.6453 14.0194 14.7323 13.9376 14.8068C13.8559 14.8813 13.7824 14.9616 13.7158 15.0489C13.6854 15.0887 13.6567 15.1298 13.628 15.1709C13.609 15.198 13.5901 15.2251 13.5711 15.2523C13.5231 15.3209 13.4749 15.3898 13.4346 15.4634C13.4246 15.4817 13.415 15.5003 13.406 15.519C13.3927 15.5466 13.3806 15.5749 13.3684 15.6033C13.3589 15.6255 13.3493 15.6477 13.3406 15.6706C13.3253 15.7111 13.3131 15.7528 13.3011 15.7943C13.2911 15.8289 13.2811 15.8635 13.2711 15.8981C13.2593 15.9389 13.2474 15.9804 13.2448 16.0232C13.2423 16.0659 13.2488 16.1102 13.2486 16.1537C13.2481 16.2496 13.248 16.3456 13.2483 16.4416C13.2484 16.5383 13.3121 16.6268 13.3593 16.7074C13.4117 16.7969 13.4695 16.8834 13.5319 16.9659C13.5895 17.042 13.6511 17.115 13.7181 17.1823C13.8606 17.3255 14.0274 17.4432 14.2087 17.5285C14.2587 17.552 14.3099 17.5731 14.3609 17.5941C14.4233 17.6199 14.4856 17.6456 14.5481 17.6714C14.6561 17.716 14.7712 17.7031 14.8861 17.7031C15.4687 17.7031 16.0511 17.7031 16.6337 17.7031C16.925 17.7031 17.2163 17.7017 17.5076 17.7033C17.7109 17.7045 17.9494 17.638 18.0727 17.8581C18.1548 18.0044 18.1342 18.1927 18.0612 18.3439C17.9882 18.4952 17.8697 18.6174 17.7531 18.7368C17.5865 18.9074 17.4197 19.0781 17.2531 19.2487C17.1676 19.3362 17.0822 19.4237 16.9967 19.5111C16.1622 20.3657 15.3252 21.2227 14.4901 22.0785C14.3323 22.24 14.1747 22.4016 14.0169 22.5632C13.9402 22.6417 13.8635 22.7204 13.7867 22.799C13.2283 23.3713 12.6657 23.9437 12.1032 24.5137C12.0042 24.614 11.9089 24.7167 11.8137 24.8202C11.7321 24.9088 11.6476 24.9949 11.5583 25.0755C11.3821 25.2344 11.1855 25.3726 10.9651 25.4589C10.423 25.6714 9.78092 25.5357 9.32349 25.1698C9.07985 24.975 8.88622 24.72 8.74817 24.4376C8.67944 24.297 8.62442 24.1494 8.58298 23.9981C8.54154 23.8467 8.52325 23.7084 8.52253 23.5536C8.52096 23.2582 8.5191 22.9627 8.5191 22.6673C8.5191 20.8261 8.51882 18.9849 8.5191 17.1435C8.5191 16.7279 8.53782 16.3098 8.54468 15.8978C8.55111 15.5128 8.47666 15.1361 8.50753 14.7459C8.57198 13.9301 8.84263 13.1392 9.22589 12.425C9.26433 12.3534 9.30406 12.2825 9.34478 12.2123C9.60887 11.7581 9.91482 11.3347 10.2455 10.9295Z" fill="#F9F9FB"/>
</svg>
