<svg width="34" height="34" viewBox="0 0 34 34" fill="none" xmlns="http://www.w3.org/2000/svg">
<path d="M11.9914 7.51536C9.60861 8.23288 7.90964 9.4459 7.07052 10.2273C7.00449 10.2888 6.88485 10.2033 6.92739 10.1237C9.92216 4.52207 17.0377 2.71351 22.2189 6.99799C27.7621 11.5659 26.4276 18.8028 22.4755 22.1903C18.5341 25.5687 14.6608 24.8121 12.6374 24.1971C12.6263 24.1937 12.6171 24.1885 12.6087 24.1806C12.1409 23.7397 11.2447 22.2227 11.0565 21.4095C11.0425 21.3491 11.1043 21.3038 11.1595 21.332C13.0021 22.2713 15.6499 23.9333 20.0119 21.6771C24.5285 18.9055 24.9905 13.2084 22.2189 9.56426C18.4838 5.01805 12.7275 6.97905 12.015 7.50379C12.0074 7.50937 12.0004 7.51265 11.9914 7.51536Z" fill="#F9F9FB"/>
<path d="M26.5804 12.6349C26.2566 10.4938 24.9548 8.52192 24.1044 7.52815C24.0467 7.46079 24.1291 7.35666 24.2053 7.402C29.4221 10.5065 31.4589 18.1255 26.0171 23.2678C23.037 26.2866 18.7436 26.3505 16.6701 25.7461C16.5895 25.7226 16.6054 25.6104 16.6889 25.6026C18.7907 25.4066 21.0464 24.4038 22.2116 23.581C22.2166 23.5774 22.222 23.5746 22.2277 23.5723C26.1206 22.0294 28.2715 17.009 26.5848 12.6514C26.5828 12.6461 26.5813 12.6405 26.5804 12.6349Z" fill="#F9F9FB"/>
<path d="M11.345 10.6366C12.9029 9.3726 14.4161 8.75472 16.8484 8.43242C16.9325 8.42128 16.9426 8.30996 16.8595 8.29303C14.3206 7.77574 7.91734 8.01435 5.43565 14.389C3.2725 20.7823 6.78194 24.9246 9.63929 26.6471C9.7177 26.6944 9.80267 26.5781 9.74063 26.5107C8.34696 24.9981 7.53329 22.5925 7.28457 21.4774C7.28372 21.4736 7.28262 21.4701 7.28122 21.4664C5.43856 16.6988 7.53848 12.4952 11.33 10.6462C11.3354 10.6436 11.3404 10.6403 11.345 10.6366Z" fill="#F9F9FB"/>
<path d="M12.5159 20.8716C11.7321 19.9583 11.1968 18.5708 11.0557 17.5843C11.0453 17.5119 10.9694 17.4988 10.9503 17.5693C10.8022 18.1138 10.7323 19.3884 10.7712 19.8539C10.7727 19.8717 10.7807 19.8873 10.7927 19.9005C10.9581 20.0811 11.0271 20.3489 12.3873 21.0507C12.4695 21.0932 12.5762 20.9418 12.5159 20.8716Z" fill="#F9F9FB"/>
<path d="M23.07 14.1112C22.6582 13.7082 21.9043 13.2175 21.3432 12.8935C21.2662 12.8491 21.1803 12.9606 21.2357 13.0301C21.9801 13.965 22.5962 15.4921 22.7198 16.7618C22.7257 16.8228 22.7832 16.8411 22.807 16.7847C22.9817 16.3702 23.1326 15.0606 23.0923 14.1612C23.0914 14.1421 23.0837 14.1246 23.07 14.1112Z" fill="#F9F9FB"/>
<path d="M22.7989 12.5746C22.5625 11.6474 21.6975 10.3776 21.2582 9.8364C21.2491 9.82525 21.2373 9.8173 21.2238 9.81266C14.8139 7.62289 7.90007 12.2405 7.95138 19.8796C8.05403 25.8847 14.9317 30.8633 20.9367 28.9643C24.2215 27.8498 26.1816 25.3586 26.899 23.8976C26.9356 23.8231 26.8444 23.7588 26.782 23.8136C25.0499 25.3342 22.6317 26.4733 21.4574 26.7045C21.4523 26.7055 21.4477 26.7069 21.4429 26.7089C20.2099 27.2212 18.0582 27.7314 15.8042 27.1679C11.3902 25.7821 8.31067 20.6495 10.9283 15.363C12.3885 12.4138 17.3531 9.37507 22.6855 12.6515C22.7427 12.6866 22.8155 12.6397 22.7989 12.5746Z" fill="#F9F9FB"/>
</svg>
